<svg width="122" height="40" viewBox="0 0 122 40" fill="none" xmlns="http://www.w3.org/2000/svg">
<path d="M4.064 32V14.944C4.064 13.8347 4.33067 12.8 4.864 11.84C5.39733 10.88 6.15467 10.112 7.136 9.536C8.13867 8.93867 9.312 8.64 10.656 8.64V11.936C9.632 11.936 8.864 12.2347 8.352 12.832C7.84 13.408 7.584 14.1013 7.584 14.912V32H4.064ZM0.384 19.84V16.64H14.816V19.84H0.384ZM13.344 32V8.96H16.864V32H13.344ZM20.7965 32V16.64H24.3165V32H20.7965ZM22.5565 13.824C21.9592 13.824 21.4578 13.6213 21.0525 13.216C20.6685 12.8107 20.4765 12.3093 20.4765 11.712C20.4765 11.1147 20.6685 10.6133 21.0525 10.208C21.4578 9.80267 21.9592 9.6 22.5565 9.6C23.1752 9.6 23.6765 9.80267 24.0605 10.208C24.4445 10.6133 24.6365 11.1147 24.6365 11.712C24.6365 12.3093 24.4445 12.8107 24.0605 13.216C23.6765 13.6213 23.1752 13.824 22.5565 13.824ZM36.4885 32.32C35.3152 32.32 34.2698 32.0747 33.3525 31.584C32.4352 31.072 31.7098 30.3787 31.1765 29.504C30.6645 28.6293 30.4085 27.6373 30.4085 26.528V22.112C30.4085 21.0027 30.6752 20.0107 31.2085 19.136C31.7418 18.2613 32.4672 17.5787 33.3845 17.088C34.3018 16.576 35.3365 16.32 36.4885 16.32C37.8752 16.32 39.1232 16.6827 40.2325 17.408C41.3632 18.112 42.2485 19.072 42.8885 20.288C43.5498 21.4827 43.8805 22.8373 43.8805 24.352C43.8805 25.8453 43.5498 27.2 42.8885 28.416C42.2485 29.6107 41.3632 30.56 40.2325 31.264C39.1232 31.968 37.8752 32.32 36.4885 32.32ZM28.2645 38.4V16.64H31.7845V20.768L31.1765 24.512L31.7845 28.224V38.4H28.2645ZM35.9125 28.992C36.7658 28.992 37.5125 28.8 38.1525 28.416C38.8138 28.0107 39.3258 27.456 39.6885 26.752C40.0725 26.048 40.2645 25.2373 40.2645 24.32C40.2645 23.4027 40.0725 22.592 39.6885 21.888C39.3258 21.184 38.8138 20.64 38.1525 20.256C37.5125 19.8507 36.7658 19.648 35.9125 19.648C35.0592 19.648 34.3018 19.8507 33.6405 20.256C32.9792 20.64 32.4672 21.184 32.1045 21.888C31.7418 22.592 31.5605 23.4027 31.5605 24.32C31.5605 25.2373 31.7418 26.048 32.1045 26.752C32.4672 27.456 32.9792 28.0107 33.6405 28.416C34.3018 28.8 35.0592 28.992 35.9125 28.992Z" fill="#4F39F6"/>
<path d="M53.963 32.32C52.427 32.32 51.0403 31.9787 49.803 31.296C48.587 30.592 47.6163 29.632 46.891 28.416C46.187 27.2 45.835 25.8347 45.835 24.32C45.835 22.8053 46.187 21.4507 46.891 20.256C47.595 19.04 48.5443 18.08 49.739 17.376C50.955 16.672 52.299 16.32 53.771 16.32C55.2003 16.32 56.459 16.6507 57.547 17.312C58.6563 17.9733 59.5203 18.88 60.139 20.032C60.779 21.184 61.099 22.496 61.099 23.968C61.099 24.224 61.0777 24.4907 61.035 24.768C61.0137 25.024 60.971 25.312 60.907 25.632H48.299V22.752H59.083L57.771 23.904C57.7283 22.9653 57.547 22.176 57.227 21.536C56.907 20.896 56.4483 20.4053 55.851 20.064C55.275 19.7227 54.5603 19.552 53.707 19.552C52.811 19.552 52.0323 19.744 51.371 20.128C50.7097 20.512 50.1977 21.056 49.835 21.76C49.4723 22.4427 49.291 23.264 49.291 24.224C49.291 25.184 49.483 26.0267 49.867 26.752C50.251 27.4773 50.795 28.0427 51.499 28.448C52.203 28.832 53.0137 29.024 53.931 29.024C54.7203 29.024 55.4457 28.8853 56.107 28.608C56.7897 28.3307 57.3657 27.9253 57.835 27.392L60.075 29.664C59.3283 30.5387 58.4217 31.2 57.355 31.648C56.2883 32.096 55.1577 32.32 53.963 32.32ZM70.3528 32.32C68.9661 32.32 67.7074 31.968 66.5768 31.264C65.4674 30.56 64.5821 29.6107 63.9208 28.416C63.2808 27.2 62.9608 25.8453 62.9608 24.352C62.9608 22.8373 63.2808 21.4827 63.9208 20.288C64.5821 19.072 65.4674 18.112 66.5768 17.408C67.7074 16.6827 68.9661 16.32 70.3528 16.32C71.5261 16.32 72.5608 16.576 73.4568 17.088C74.3741 17.5787 75.0994 18.2613 75.6328 19.136C76.1661 20.0107 76.4328 21.0027 76.4328 22.112V26.528C76.4328 27.6373 76.1661 28.6293 75.6328 29.504C75.1208 30.3787 74.4061 31.072 73.4888 31.584C72.5714 32.0747 71.5261 32.32 70.3528 32.32ZM70.9288 28.992C72.2301 28.992 73.2754 28.5547 74.0648 27.68C74.8754 26.8053 75.2808 25.6853 75.2808 24.32C75.2808 23.4027 75.0994 22.592 74.7368 21.888C74.3741 21.184 73.8621 20.64 73.2008 20.256C72.5608 19.8507 71.8034 19.648 70.9288 19.648C70.0754 19.648 69.3181 19.8507 68.6568 20.256C68.0168 20.64 67.5048 21.184 67.1208 21.888C66.7581 22.592 66.5768 23.4027 66.5768 24.32C66.5768 25.2373 66.7581 26.048 67.1208 26.752C67.5048 27.456 68.0168 28.0107 68.6568 28.416C69.3181 28.8 70.0754 28.992 70.9288 28.992ZM75.0568 32V27.872L75.6648 24.128L75.0568 20.416V16.64H78.5768V32H75.0568ZM82.4833 32V16.64H86.0033V32H82.4833ZM86.0033 23.456L84.7873 22.848C84.7873 20.9067 85.2139 19.3387 86.0673 18.144C86.9419 16.928 88.2539 16.32 90.0033 16.32C90.7713 16.32 91.4646 16.4587 92.0833 16.736C92.7019 17.0133 93.2779 17.4613 93.8113 18.08L91.5073 20.448C91.2299 20.1493 90.9206 19.936 90.5793 19.808C90.2379 19.68 89.8433 19.616 89.3953 19.616C88.4139 19.616 87.6033 19.9253 86.9633 20.544C86.3233 21.1627 86.0033 22.1333 86.0033 23.456ZM106.043 32V23.136C106.043 22.112 105.712 21.2693 105.051 20.608C104.411 19.9467 103.579 19.616 102.555 19.616C101.872 19.616 101.264 19.7653 100.731 20.064C100.197 20.3627 99.7812 20.7787 99.4825 21.312C99.1838 21.8453 99.0345 22.4533 99.0345 23.136L97.6585 22.368C97.6585 21.1947 97.9145 20.16 98.4265 19.264C98.9385 18.3467 99.6425 17.632 100.539 17.12C101.456 16.5867 102.48 16.32 103.611 16.32C104.763 16.32 105.787 16.6187 106.683 17.216C107.579 17.792 108.283 18.5493 108.795 19.488C109.307 20.4053 109.562 21.3653 109.562 22.368V32H106.043ZM95.5145 32V16.64H99.0345V32H95.5145Z" fill="black"/>
<rect x="116" y="26" width="5" height="5" rx="2.5" fill="#4F39F6" stroke="#4F39F6" stroke-width="2"/>
</svg>
